<svg width="66" height="66" viewBox="0 0 66 66" fill="none" xmlns="http://www.w3.org/2000/svg">
<g id="alert-triangle">
<path id="Icon" d="M32.9993 24.7499V35.7499M32.9993 46.7499H33.0268M29.1915 10.7021L6.57301 49.7704C5.31845 51.9373 4.69117 53.0208 4.78388 53.9101C4.86475 54.6857 5.27111 55.3905 5.90185 55.8491C6.62498 56.3749 7.87695 56.3749 10.3809 56.3749H55.6178C58.1217 56.3749 59.3737 56.3749 60.0968 55.8491C60.7275 55.3905 61.1339 54.6857 61.2148 53.9101C61.3075 53.0208 60.6802 51.9373 59.4256 49.7703L36.8072 10.7021C35.5571 8.54293 34.9321 7.46334 34.1166 7.10074C33.4053 6.78445 32.5933 6.78445 31.882 7.10074C31.0665 7.46334 30.4415 8.54294 29.1915 10.7021Z" stroke="#444444" stroke-width="2" stroke-linecap="round" stroke-linejoin="round"/>
</g>
</svg>
