<svg width="150" height="150" viewBox="0 0 150 150" fill="none" xmlns="http://www.w3.org/2000/svg">
<g id="arrow-circle-right">
<g id="Icon">
<path d="M75 137.5C109.518 137.5 137.5 109.518 137.5 75C137.5 40.4822 109.518 12.5 75 12.5C40.4822 12.5 12.5 40.4822 12.5 75C12.5 109.518 40.4822 137.5 75 137.5Z" fill="#CEFFA7"/>
<path d="M75 100L100 75L75 50" fill="#CEFFA7"/>
<path d="M75 100L100 75M100 75L75 50M100 75H50M137.5 75C137.5 109.518 109.518 137.5 75 137.5C40.4822 137.5 12.5 109.518 12.5 75C12.5 40.4822 40.4822 12.5 75 12.5C109.518 12.5 137.5 40.4822 137.5 75Z" stroke="#444444" stroke-width="2" stroke-linecap="round" stroke-linejoin="round"/>
</g>
</g>
</svg>
