<svg width="80" height="80" viewBox="0 0 80 80" fill="none" xmlns="http://www.w3.org/2000/svg">
<g id="file-check-02">
<path id="Icon" d="M66.6667 41.6666V22.6666C66.6667 17.0661 66.6667 14.2658 65.5768 12.1267C64.618 10.2451 63.0882 8.71529 61.2066 7.75656C59.0675 6.66663 56.2672 6.66663 50.6667 6.66663H29.3334C23.7328 6.66663 20.9326 6.66663 18.7935 7.75656C16.9118 8.71529 15.382 10.2451 14.4233 12.1267C13.3334 14.2658 13.3334 17.0661 13.3334 22.6666V57.3333C13.3334 62.9338 13.3334 65.7341 14.4233 67.8732C15.382 69.7548 16.9118 71.2846 18.7935 72.2434C20.9326 73.3333 23.7328 73.3333 29.3334 73.3333H40M46.6667 36.6666H26.6667M33.3334 50H26.6667M53.3334 23.3333H26.6667M48.3334 63.3333L55 70L70 55" stroke="#444444" stroke-width="2" stroke-linecap="round" stroke-linejoin="round"/>
</g>
</svg>
