<svg width="123" height="123" viewBox="0 0 123 123" fill="none" xmlns="http://www.w3.org/2000/svg">
<g id="home-02">
<path id="Icon" d="M46.125 107.625V69.7C46.125 66.8297 46.125 65.3946 46.6836 64.2983C47.1749 63.334 47.959 62.5499 48.9233 62.0586C50.0196 61.5 51.4547 61.5 54.325 61.5H68.675C71.5453 61.5 72.9804 61.5 74.0767 62.0586C75.041 62.5499 75.8251 63.334 76.3164 64.2983C76.875 65.3946 76.875 66.8297 76.875 69.7V107.625M56.4657 14.1656L21.7064 41.2006C19.3829 43.0078 18.2211 43.9114 17.3841 45.043C16.6427 46.0453 16.0905 47.1746 15.7544 48.3752C15.375 49.7306 15.375 51.2024 15.375 54.146V91.225C15.375 96.9655 15.375 99.8358 16.4922 102.028C17.4749 103.957 19.0429 105.525 20.9716 106.508C23.1642 107.625 26.0345 107.625 31.775 107.625H91.225C96.9655 107.625 99.8358 107.625 102.028 106.508C103.957 105.525 105.525 103.957 106.508 102.028C107.625 99.8358 107.625 96.9655 107.625 91.225V54.146C107.625 51.2024 107.625 49.7306 107.246 48.3752C106.91 47.1746 106.357 46.0453 105.616 45.043C104.779 43.9114 103.617 43.0078 101.294 41.2006L66.5343 14.1656C64.7338 12.7651 63.8335 12.0649 62.8394 11.7958C61.9623 11.5583 61.0377 11.5583 60.1606 11.7958C59.1665 12.0649 58.2662 12.7651 56.4657 14.1656Z" stroke="#444444" stroke-width="2" stroke-linecap="round" stroke-linejoin="round"/>
</g>
</svg>
