<svg width="134" height="134" viewBox="0 0 134 134" fill="none" xmlns="http://www.w3.org/2000/svg">
<g id="save-01">
<path id="Icon" d="M39.0833 16.75V35.7333C39.0833 38.8603 39.0833 40.4238 39.6919 41.6181C40.2272 42.6687 41.0813 43.5228 42.1319 44.0581C43.3262 44.6667 44.8897 44.6667 48.0167 44.6667H85.9833C89.1103 44.6667 90.6738 44.6667 91.8681 44.0581C92.9187 43.5228 93.7728 42.6687 94.3081 41.6181C94.9167 40.4238 94.9167 38.8603 94.9167 35.7333V22.3333M94.9167 117.25V81.5167C94.9167 78.3897 94.9167 76.8262 94.3081 75.6319C93.7728 74.5813 92.9187 73.7272 91.8681 73.1919C90.6738 72.5833 89.1103 72.5833 85.9833 72.5833H48.0167C44.8897 72.5833 43.3262 72.5833 42.1319 73.1919C41.0813 73.7272 40.2272 74.5813 39.6919 75.6319C39.0833 76.8262 39.0833 78.3897 39.0833 81.5167V117.25M117.25 52.0673V90.45C117.25 99.8309 117.25 104.521 115.424 108.104C113.818 111.256 111.256 113.818 108.104 115.424C104.521 117.25 99.8309 117.25 90.45 117.25H43.55C34.1691 117.25 29.4787 117.25 25.8957 115.424C22.7439 113.818 20.1815 111.256 18.5756 108.104C16.75 104.521 16.75 99.8309 16.75 90.45V43.55C16.75 34.1691 16.75 29.4787 18.5756 25.8957C20.1815 22.7439 22.7439 20.1815 25.8957 18.5756C29.4787 16.75 34.1691 16.75 43.55 16.75H81.9327C84.664 16.75 86.0296 16.75 87.3148 17.0585C88.4542 17.3321 89.5434 17.7833 90.5425 18.3955C91.6694 19.0861 92.6351 20.0517 94.5664 21.983L112.017 39.4336C113.948 41.3649 114.914 42.3306 115.604 43.4575C116.217 44.4566 116.668 45.5458 116.941 46.6852C117.25 47.9704 117.25 49.336 117.25 52.0673Z" stroke="#444444" stroke-width="2" stroke-linecap="round" stroke-linejoin="round"/>
</g>
</svg>
