<svg width="75" height="75" viewBox="0 0 75 75" fill="none" xmlns="http://www.w3.org/2000/svg">
<g id="scan">
<path id="Icon" d="M25 9.375H24.375C19.1245 9.375 16.4993 9.375 14.4938 10.3968C12.7298 11.2956 11.2956 12.7298 10.3968 14.4938C9.375 16.4993 9.375 19.1245 9.375 24.375V25M25 65.625H24.375C19.1245 65.625 16.4993 65.625 14.4938 64.6032C12.7298 63.7044 11.2956 62.2702 10.3968 60.5062C9.375 58.5007 9.375 55.8755 9.375 50.625V50M65.625 25V24.375C65.625 19.1245 65.625 16.4993 64.6032 14.4938C63.7044 12.7298 62.2702 11.2956 60.5062 10.3968C58.5007 9.375 55.8755 9.375 50.625 9.375H50M65.625 50V50.625C65.625 55.8755 65.625 58.5007 64.6032 60.5062C63.7044 62.2702 62.2702 63.7044 60.5062 64.6032C58.5007 65.625 55.8755 65.625 50.625 65.625H50M9.375 37.5H9.40625M23.4375 37.5H23.4688M51.5625 37.5H51.5938M37.5 37.5H37.5313M65.625 37.5H65.6563" stroke="#444444" stroke-width="2" stroke-linecap="round" stroke-linejoin="round"/>
</g>
</svg>
