<svg width="119" height="119" viewBox="0 0 119 119" fill="none" xmlns="http://www.w3.org/2000/svg">
<g id="settings-01">
<g id="Icon">
<path d="M59.5 74.375C67.7152 74.375 74.375 67.7152 74.375 59.5C74.375 51.2848 67.7152 44.625 59.5 44.625C51.2848 44.625 44.625 51.2848 44.625 59.5C44.625 67.7152 51.2848 74.375 59.5 74.375Z" stroke="#444444" stroke-width="2" stroke-linecap="round" stroke-linejoin="round"/>
<path d="M92.856 73.0227C92.256 74.3823 92.077 75.8904 92.3422 77.3527C92.6073 78.8149 93.3044 80.1642 94.3436 81.2265L94.614 81.497C95.4522 82.3342 96.1172 83.3285 96.5708 84.4229C97.0245 85.5174 97.258 86.6905 97.258 87.8752C97.258 89.0599 97.0245 90.233 96.5708 91.3275C96.1172 92.4219 95.4522 93.4161 94.614 94.2534C93.7767 95.0916 92.7825 95.7566 91.6881 96.2102C90.5936 96.6639 89.4205 96.8974 88.2358 96.8974C87.0511 96.8974 85.8779 96.6639 84.7835 96.2102C83.6891 95.7566 82.6948 95.0916 81.8576 94.2534L81.5871 93.983C80.5248 92.9438 79.1755 92.2467 77.7133 91.9816C76.251 91.7164 74.7429 91.8954 73.3833 92.4955C72.0501 93.0669 70.9131 94.0156 70.1122 95.225C69.3113 96.4343 68.8815 97.8514 68.8757 99.3019V100.068C68.8757 102.459 67.9259 104.752 66.2353 106.443C64.5446 108.134 62.2516 109.083 59.8606 109.083C57.4696 109.083 55.1766 108.134 53.4859 106.443C51.7953 104.752 50.8454 102.459 50.8454 100.068V99.6625C50.8105 98.1705 50.3276 96.7235 49.4594 95.5097C48.5912 94.2958 47.3779 93.3712 45.9773 92.8561C44.6177 92.256 43.1096 92.0771 41.6473 92.3422C40.1851 92.6073 38.8358 93.3044 37.7735 94.3436L37.503 94.614C36.6658 95.4522 35.6715 96.1172 34.5771 96.5709C33.4826 97.0245 32.3095 97.258 31.1248 97.258C29.9401 97.258 28.767 97.0245 27.6725 96.5709C26.5781 96.1172 25.5838 95.4522 24.7466 94.614C23.9084 93.7768 23.2434 92.7825 22.7898 91.6881C22.3361 90.5937 22.1026 89.4205 22.1026 88.2358C22.1026 87.0511 22.3361 85.878 22.7898 84.7835C23.2434 83.6891 23.9084 82.6948 24.7466 81.8576L25.017 81.5871C26.0562 80.5248 26.7533 79.1755 27.0184 77.7133C27.2836 76.251 27.1046 74.7429 26.5045 73.3833C25.9331 72.0501 24.9844 70.9131 23.775 70.1122C22.5657 69.3113 21.1486 68.8816 19.6981 68.8758H18.9318C16.5408 68.8758 14.2478 67.926 12.5571 66.2353C10.8665 64.5446 9.91666 62.2516 9.91666 59.8606C9.91666 57.4696 10.8665 55.1766 12.5571 53.4859C14.2478 51.7953 16.5408 50.8455 18.9318 50.8455H19.3375C20.8295 50.8106 22.2765 50.3276 23.4903 49.4594C24.7042 48.5912 25.6288 47.3779 26.1439 45.9773C26.744 44.6177 26.9229 43.1096 26.6578 41.6474C26.3927 40.1851 25.6956 38.8358 24.6564 37.7735L24.386 37.503C23.5478 36.6658 22.8828 35.6715 22.4291 34.5771C21.9755 33.4827 21.742 32.3095 21.742 31.1248C21.742 29.9401 21.9755 28.767 22.4291 27.6726C22.8828 26.5781 23.5478 25.5839 24.386 24.7466C25.2232 23.9084 26.2175 23.2435 27.3119 22.7898C28.4064 22.3361 29.5795 22.1026 30.7642 22.1026C31.9489 22.1026 33.122 22.3361 34.2165 22.7898C35.3109 23.2435 36.3052 23.9084 37.1424 24.7466L37.4129 25.0171C38.4752 26.0562 39.8245 26.7533 41.2867 27.0184C42.749 27.2836 44.2571 27.1046 45.6167 26.5046H45.9773C47.3105 25.9332 48.4475 24.9844 49.2484 23.7751C50.0493 22.5657 50.4791 21.1486 50.4848 19.6981V18.9318C50.4848 16.5409 51.4346 14.2478 53.1253 12.5571C54.816 10.8665 57.109 9.91667 59.5 9.91667C61.891 9.91667 64.184 10.8665 65.8747 12.5571C67.5653 14.2478 68.5151 16.5409 68.5151 18.9318V19.3375C68.5209 20.788 68.9507 22.2051 69.7516 23.4145C70.5525 24.6238 71.6895 25.5726 73.0227 26.1439C74.3823 26.744 75.8904 26.923 77.3526 26.6578C78.8149 26.3927 80.1642 25.6956 81.2265 24.6564L81.497 24.386C82.3342 23.5478 83.3285 22.8828 84.4229 22.4292C85.5173 21.9755 86.6905 21.742 87.8752 21.742C89.0599 21.742 90.233 21.9755 91.3275 22.4292C92.4219 22.8828 93.4161 23.5478 94.2534 24.386C95.0916 25.2233 95.7566 26.2175 96.2102 27.3119C96.6639 28.4064 96.8974 29.5795 96.8974 30.7642C96.8974 31.9489 96.6639 33.1221 96.2102 34.2165C95.7566 35.3109 95.0916 36.3052 94.2534 37.1424L93.9829 37.4129C92.9438 38.4752 92.2467 39.8245 91.9816 41.2867C91.7164 42.749 91.8954 44.2571 92.4954 45.6167V45.9773C93.0668 47.3105 94.0156 48.4475 95.2249 49.2484C96.4343 50.0493 97.8514 50.4791 99.3019 50.4849H100.068C102.459 50.4849 104.752 51.4347 106.443 53.1253C108.134 54.816 109.083 57.109 109.083 59.5C109.083 61.891 108.134 64.184 106.443 65.8747C104.752 67.5653 102.459 68.5152 100.068 68.5152H99.6625C98.212 68.5209 96.7949 68.9507 95.5856 69.7516C94.3762 70.5525 93.4274 71.6895 92.856 73.0227Z" stroke="#444444" stroke-width="2" stroke-linecap="round" stroke-linejoin="round"/>
</g>
</g>
</svg>
