<svg width="94" height="94" viewBox="0 0 94 94" fill="none" xmlns="http://www.w3.org/2000/svg">
<g id="trash-01">
<path id="Icon" d="M62.6667 23.5V20.3667C62.6667 15.9796 62.6667 13.7861 61.8129 12.1104C61.0619 10.6365 59.8635 9.43816 58.3896 8.68716C56.714 7.83337 54.5204 7.83337 50.1333 7.83337H43.8667C39.4796 7.83337 37.2861 7.83337 35.6104 8.68716C34.1365 9.43816 32.9381 10.6365 32.1871 12.1104C31.3333 13.7861 31.3333 15.9796 31.3333 20.3667V23.5M39.1667 45.0417V64.625M54.8333 45.0417V64.625M11.75 23.5H82.25M74.4167 23.5V67.3667C74.4167 73.9473 74.4167 77.2376 73.136 79.7511C72.0095 81.962 70.212 83.7595 68.0011 84.886C65.4876 86.1667 62.1973 86.1667 55.6167 86.1667H38.3833C31.8027 86.1667 28.5124 86.1667 25.9989 84.886C23.788 83.7595 21.9905 81.962 20.864 79.7511C19.5833 77.2376 19.5833 73.9473 19.5833 67.3667V23.5" stroke="#444444" stroke-width="2" stroke-linecap="round" stroke-linejoin="round"/>
</g>
</svg>
