<svg width="104" height="104" viewBox="0 0 104 104" fill="none" xmlns="http://www.w3.org/2000/svg">
<g id="user-circle">
<path id="Icon" d="M23.0372 84.2332C25.6733 78.0226 31.828 73.6668 39 73.6668H65C72.172 73.6668 78.3266 78.0226 80.9627 84.2332M69.3333 41.1667C69.3333 50.7397 61.5729 58.5001 52 58.5001C42.427 58.5001 34.6666 50.7397 34.6666 41.1667C34.6666 31.5938 42.427 23.8334 52 23.8334C61.5729 23.8334 69.3333 31.5938 69.3333 41.1667ZM95.3333 52.0001C95.3333 75.9324 75.9323 95.3334 52 95.3334C28.0676 95.3334 8.66663 75.9324 8.66663 52.0001C8.66663 28.0677 28.0676 8.66675 52 8.66675C75.9323 8.66675 95.3333 28.0677 95.3333 52.0001Z" stroke="#444444" stroke-width="2" stroke-linecap="round" stroke-linejoin="round"/>
</g>
</svg>
